<svg width="136" height="70" viewBox="0 0 136 70" fill="none" xmlns="http://www.w3.org/2000/svg">
<path d="M125.563 17.1724L127.581 2.88116L116.008 11.0323L121.957 11.6341L125.563 17.1724Z" fill="#020202" stroke="white" stroke-width="0.698912"/>
<g filter="url(#filter0_d_29_141)">
<path d="M121.167 17.5H30.75C22.0515 17.5 15 24.5515 15 33.25C15 41.9485 22.0515 49 30.75 49H106.463C114.584 49 121.167 42.4171 121.167 34.2967V17.5Z" fill="#67FF76"/>
<path d="M120.431 18.2352H30.75C22.4575 18.2352 15.7352 24.9575 15.7352 33.25C15.7352 41.5425 22.4575 48.2648 30.75 48.2648H106.463C114.178 48.2648 120.431 42.0111 120.431 34.2967V18.2352Z" stroke="#4BC257" stroke-width="1.47033"/>
</g>
<path d="M47.6057 36.6667V28.4329H51.2051C52.099 28.4329 52.8832 28.6054 53.5576 28.9504C54.232 29.2955 54.7574 29.7738 55.1338 30.3855C55.5102 30.9971 55.6984 31.7186 55.6984 32.5498C55.6984 33.3732 55.5102 34.0946 55.1338 34.7141C54.7574 35.3258 54.232 35.8042 53.5576 36.1492C52.8832 36.4942 52.099 36.6667 51.2051 36.6667H47.6057ZM49.1348 35.3729H51.1345C51.754 35.3729 52.2872 35.2552 52.7342 35.02C53.189 34.7847 53.538 34.4554 53.7811 34.0319C54.032 33.6085 54.1575 33.1144 54.1575 32.5498C54.1575 31.9774 54.032 31.4833 53.7811 31.0677C53.538 30.6443 53.189 30.3149 52.7342 30.0796C52.2872 29.8444 51.754 29.7268 51.1345 29.7268H49.1348V35.3729ZM60.135 36.7491C59.437 36.7491 58.8254 36.6119 58.3 36.3374C57.7824 36.0551 57.3786 35.6708 57.0884 35.1847C56.8061 34.6985 56.665 34.1456 56.665 33.5261C56.665 32.8988 56.8022 32.3459 57.0767 31.8676C57.359 31.3814 57.7432 31.0011 58.2294 30.7266C58.7234 30.4521 59.2841 30.3149 59.9115 30.3149C60.5231 30.3149 61.0681 30.4482 61.5465 30.7148C62.0248 30.9815 62.4012 31.3579 62.6757 31.8441C62.9502 32.3302 63.0874 32.9027 63.0874 33.5614C63.0874 33.6241 63.0835 33.6947 63.0756 33.7731C63.0756 33.8515 63.0717 33.926 63.0639 33.9966H57.8295V33.0203H62.2875L61.7112 33.3261C61.719 32.9654 61.6445 32.6478 61.4877 32.3734C61.3308 32.0989 61.1152 31.8833 60.8407 31.7264C60.5741 31.5696 60.2644 31.4912 59.9115 31.4912C59.5507 31.4912 59.2332 31.5696 58.9587 31.7264C58.6921 31.8833 58.4803 32.1028 58.3235 32.3851C58.1745 32.6596 58.1 32.985 58.1 33.3614V33.5967C58.1 33.9731 58.1863 34.3064 58.3588 34.5965C58.5313 34.8867 58.7744 35.1102 59.0881 35.267C59.4018 35.4238 59.7625 35.5022 60.1703 35.5022C60.5231 35.5022 60.8407 35.4474 61.123 35.3376C61.4053 35.2278 61.6563 35.0553 61.8758 34.82L62.6639 35.7257C62.3816 36.0551 62.0248 36.3099 61.5935 36.4903C61.1701 36.6628 60.6839 36.7491 60.135 36.7491ZM67.9815 36.7491C67.4718 36.7491 67.0052 36.6315 66.5817 36.3962C66.1661 36.161 65.8328 35.8081 65.5819 35.3376C65.3388 34.8592 65.2173 34.2554 65.2173 33.5261C65.2173 32.789 65.3349 32.1852 65.5701 31.7147C65.8132 31.2442 66.1426 30.8952 66.5582 30.6678C66.9738 30.4325 67.4483 30.3149 67.9815 30.3149C68.601 30.3149 69.146 30.4482 69.6165 30.7148C70.0949 30.9815 70.4713 31.3539 70.7457 31.8323C71.028 32.3106 71.1692 32.8752 71.1692 33.5261C71.1692 34.177 71.028 34.7455 70.7457 35.2317C70.4713 35.7101 70.0949 36.0825 69.6165 36.3492C69.146 36.6158 68.601 36.7491 67.9815 36.7491ZM64.4997 38.9487V30.3855H65.8995V31.8676L65.8524 33.5379L65.9701 35.2082V38.9487H64.4997ZM67.8168 35.4905C68.1697 35.4905 68.4834 35.4121 68.7578 35.2552C69.0401 35.0984 69.2636 34.871 69.4283 34.573C69.593 34.275 69.6753 33.926 69.6753 33.5261C69.6753 33.1183 69.593 32.7694 69.4283 32.4792C69.2636 32.1812 69.0401 31.9538 68.7578 31.797C68.4834 31.6402 68.1697 31.5617 67.8168 31.5617C67.4639 31.5617 67.1463 31.6402 66.864 31.797C66.5817 31.9538 66.3582 32.1812 66.1936 32.4792C66.0289 32.7694 65.9466 33.1183 65.9466 33.5261C65.9466 33.926 66.0289 34.275 66.1936 34.573C66.3582 34.871 66.5817 35.0984 66.864 35.2552C67.1463 35.4121 67.4639 35.4905 67.8168 35.4905ZM72.5636 36.6667V27.9388H74.0339V36.6667H72.5636ZM78.7868 36.7491C78.1438 36.7491 77.5713 36.6119 77.0694 36.3374C76.5676 36.0551 76.1716 35.6708 75.8814 35.1847C75.5913 34.6985 75.4462 34.1456 75.4462 33.5261C75.4462 32.8988 75.5913 32.3459 75.8814 31.8676C76.1716 31.3814 76.5676 31.0011 77.0694 30.7266C77.5713 30.4521 78.1438 30.3149 78.7868 30.3149C79.4377 30.3149 80.014 30.4521 80.5159 30.7266C81.0256 31.0011 81.4216 31.3775 81.7039 31.8558C81.9941 32.3342 82.1392 32.8909 82.1392 33.5261C82.1392 34.1456 81.9941 34.6985 81.7039 35.1847C81.4216 35.6708 81.0256 36.0551 80.5159 36.3374C80.014 36.6119 79.4377 36.7491 78.7868 36.7491ZM78.7868 35.4905C79.1475 35.4905 79.469 35.4121 79.7513 35.2552C80.0336 35.0984 80.2532 34.871 80.41 34.573C80.5747 34.275 80.6571 33.926 80.6571 33.5261C80.6571 33.1183 80.5747 32.7694 80.41 32.4792C80.2532 32.1812 80.0336 31.9538 79.7513 31.797C79.469 31.6402 79.1514 31.5617 78.7986 31.5617C78.4378 31.5617 78.1163 31.6402 77.834 31.797C77.5596 31.9538 77.34 32.1812 77.1753 32.4792C77.0106 32.7694 76.9283 33.1183 76.9283 33.5261C76.9283 33.926 77.0106 34.275 77.1753 34.573C77.34 34.871 77.5596 35.0984 77.834 35.2552C78.1163 35.4121 78.4339 35.4905 78.7868 35.4905ZM83.8904 39.031C83.5846 39.031 83.2788 38.9801 82.9729 38.8781C82.6671 38.7762 82.4122 38.635 82.2084 38.4547L82.7965 37.3725C82.9455 37.5058 83.1141 37.6117 83.3023 37.6901C83.4905 37.7685 83.6826 37.8077 83.8787 37.8077C84.1453 37.8077 84.3609 37.7411 84.5256 37.6078C84.6903 37.4745 84.8432 37.251 84.9844 36.9373L85.349 36.1139L85.4666 35.9375L87.8427 30.3855H89.2542L86.3135 37.1725C86.1175 37.6431 85.8979 38.0155 85.6548 38.29C85.4196 38.5645 85.1529 38.7566 84.855 38.8664C84.5648 38.9762 84.2433 39.031 83.8904 39.031ZM85.1843 36.8902L82.3495 30.3855H83.8787L86.1841 35.8081L85.1843 36.8902Z" fill="#020202"/>
<defs>
<filter id="filter0_d_29_141" x="0.296657" y="8.67799" width="135.573" height="60.9067" filterUnits="userSpaceOnUse" color-interpolation-filters="sRGB">
<feFlood flood-opacity="0" result="BackgroundImageFix"/>
<feColorMatrix in="SourceAlpha" type="matrix" values="0 0 0 0 0 0 0 0 0 0 0 0 0 0 0 0 0 0 127 0" result="hardAlpha"/>
<feOffset dy="5.88134"/>
<feGaussianBlur stdDeviation="7.35167"/>
<feComposite in2="hardAlpha" operator="out"/>
<feColorMatrix type="matrix" values="0 0 0 0 0.404167 0 0 0 0 1 0 0 0 0 0.46375 0 0 0 0.25 0"/>
<feBlend mode="normal" in2="BackgroundImageFix" result="effect1_dropShadow_29_141"/>
<feBlend mode="normal" in="SourceGraphic" in2="effect1_dropShadow_29_141" result="shape"/>
</filter>
</defs>
</svg>
