<svg width="168" height="88" viewBox="0 0 168 88" fill="none" xmlns="http://www.w3.org/2000/svg">
<path d="M12.7622 21.223L10.2674 3.56067L24.5704 13.6345L17.2192 14.3782L12.7622 21.223Z" fill="#020202" stroke="white" stroke-width="0.863772"/>
<g filter="url(#filter0_d_29_140)">
<path d="M18.4186 21.6279H129.442C140.59 21.6279 149.628 30.6655 149.628 41.814C149.628 52.9624 140.59 62 129.442 62H36.5902C26.5543 62 18.4186 53.8643 18.4186 43.8284V21.6279Z" fill="#844AFF"/>
<path d="M19.3272 22.5365H129.442C140.088 22.5365 148.719 31.1673 148.719 41.814C148.719 52.4606 140.088 61.0914 129.442 61.0914H36.5902C27.0561 61.0914 19.3272 53.3625 19.3272 43.8284V22.5365Z" stroke="#5B33B0" stroke-width="1.81716"/>
</g>
<path d="M51.506 47.1628V36.9868H53.3959V47.1628H51.506ZM60.3786 39.3127C60.9989 39.3127 61.5513 39.4339 62.0359 39.6762C62.5302 39.9184 62.9178 40.2916 63.1989 40.7955C63.4799 41.2898 63.6204 41.9294 63.6204 42.7144V47.1628H61.8033V42.947C61.8033 42.2589 61.6385 41.7453 61.309 41.4061C60.9892 41.0669 60.5386 40.8973 59.9571 40.8973C59.5306 40.8973 59.1527 40.9845 58.8232 41.159C58.4936 41.3334 58.2368 41.5951 58.0527 41.944C57.8782 42.2832 57.791 42.7144 57.791 43.2378V47.1628H55.9739V39.3999H57.7038V41.4933L57.3985 40.8537C57.6699 40.3594 58.0624 39.9814 58.576 39.7198C59.0994 39.4484 59.7002 39.3127 60.3786 39.3127ZM70.3304 39.3127C70.9507 39.3127 71.5031 39.4339 71.9877 39.6762C72.4819 39.9184 72.8696 40.2916 73.1506 40.7955C73.4317 41.2898 73.5722 41.9294 73.5722 42.7144V47.1628H71.7551V42.947C71.7551 42.2589 71.5903 41.7453 71.2608 41.4061C70.941 41.0669 70.4903 40.8973 69.9088 40.8973C69.4824 40.8973 69.1044 40.9845 68.7749 41.159C68.4454 41.3334 68.1886 41.5951 68.0045 41.944C67.83 42.2832 67.7428 42.7144 67.7428 43.2378V47.1628H65.9256V39.3999H67.6556V41.4933L67.3503 40.8537C67.6216 40.3594 68.0141 39.9814 68.5278 39.7198C69.0511 39.4484 69.652 39.3127 70.3304 39.3127ZM79.3805 47.2646C78.5858 47.2646 77.8784 47.095 77.2581 46.7558C76.6378 46.4069 76.1484 45.932 75.7898 45.3311C75.4313 44.7303 75.252 44.047 75.252 43.2814C75.252 42.5061 75.4313 41.8228 75.7898 41.2316C76.1484 40.6308 76.6378 40.1607 77.2581 39.8215C77.8784 39.4823 78.5858 39.3127 79.3805 39.3127C80.1849 39.3127 80.8973 39.4823 81.5175 39.8215C82.1475 40.1607 82.6369 40.6259 82.9858 41.2171C83.3444 41.8083 83.5237 42.4964 83.5237 43.2814C83.5237 44.047 83.3444 44.7303 82.9858 45.3311C82.6369 45.932 82.1475 46.4069 81.5175 46.7558C80.8973 47.095 80.1849 47.2646 79.3805 47.2646ZM79.3805 45.7091C79.8264 45.7091 80.2237 45.6122 80.5726 45.4184C80.9215 45.2245 81.1929 44.9435 81.3867 44.5752C81.5902 44.2069 81.692 43.7757 81.692 43.2814C81.692 42.7774 81.5902 42.3462 81.3867 41.9876C81.1929 41.6193 80.9215 41.3382 80.5726 41.1444C80.2237 40.9506 79.8312 40.8537 79.3951 40.8537C78.9493 40.8537 78.5519 40.9506 78.203 41.1444C77.8638 41.3382 77.5925 41.6193 77.3889 41.9876C77.1854 42.3462 77.0837 42.7774 77.0837 43.2814C77.0837 43.7757 77.1854 44.2069 77.3889 44.5752C77.5925 44.9435 77.8638 45.2245 78.203 45.4184C78.5519 45.6122 78.9444 45.7091 79.3805 45.7091ZM87.1127 47.1628L83.7836 39.3999H85.6735L88.5373 46.247H87.6069L90.5725 39.3999H92.317L88.988 47.1628H87.1127ZM97.9941 47.1628V45.5928L97.8924 45.2585V42.5109C97.8924 41.9779 97.7325 41.566 97.4126 41.2753C97.0928 40.9748 96.6083 40.8246 95.9589 40.8246C95.5228 40.8246 95.0915 40.8924 94.6651 41.0281C94.2484 41.1638 93.8946 41.3528 93.6039 41.5951L92.8916 40.2722C93.3083 39.9524 93.8026 39.7149 94.3744 39.5599C94.9559 39.3951 95.5567 39.3127 96.177 39.3127C97.3012 39.3127 98.1686 39.5841 98.7792 40.1268C99.3994 40.6598 99.7095 41.4885 99.7095 42.6127V47.1628H97.9941ZM95.5519 47.2646C94.9704 47.2646 94.4616 47.1677 94.0255 46.9739C93.5893 46.7703 93.2501 46.4941 93.0079 46.1452C92.7753 45.7866 92.659 45.3845 92.659 44.9386C92.659 44.5025 92.7607 44.11 92.9642 43.7611C93.1775 43.4122 93.5215 43.136 93.9964 42.9325C94.4713 42.729 95.1012 42.6272 95.8862 42.6272H98.1395V43.8338H96.0171C95.3968 43.8338 94.9801 43.9356 94.7669 44.1391C94.5537 44.3329 94.447 44.5752 94.447 44.866C94.447 45.1955 94.5779 45.4571 94.8396 45.651C95.1012 45.8448 95.4647 45.9417 95.9298 45.9417C96.3757 45.9417 96.773 45.84 97.1219 45.6364C97.4805 45.4329 97.7373 45.1325 97.8924 44.7351L98.1977 45.8254C98.0232 46.2809 97.7082 46.6347 97.2527 46.8866C96.8069 47.1386 96.24 47.2646 95.5519 47.2646ZM104.964 47.2646C104.111 47.2646 103.452 47.0465 102.987 46.6104C102.521 46.1646 102.289 45.5104 102.289 44.6479V37.6845H104.106V44.6043C104.106 44.9726 104.198 45.2585 104.382 45.462C104.576 45.6655 104.842 45.7673 105.182 45.7673C105.589 45.7673 105.928 45.6607 106.199 45.4474L106.708 46.7413C106.495 46.9157 106.233 47.0465 105.923 47.1338C105.613 47.221 105.293 47.2646 104.964 47.2646ZM101.009 40.9118V39.4581H106.185V40.9118H101.009ZM111.596 47.2646C110.734 47.2646 109.978 47.095 109.328 46.7558C108.689 46.4069 108.19 45.932 107.831 45.3311C107.482 44.7303 107.308 44.047 107.308 43.2814C107.308 42.5061 107.477 41.8228 107.817 41.2316C108.165 40.6308 108.64 40.1607 109.241 39.8215C109.852 39.4823 110.545 39.3127 111.32 39.3127C112.076 39.3127 112.75 39.4775 113.341 39.807C113.932 40.1365 114.397 40.6017 114.736 41.2026C115.075 41.8034 115.245 42.5109 115.245 43.325C115.245 43.4025 115.24 43.4898 115.231 43.5867C115.231 43.6836 115.226 43.7757 115.216 43.8629H108.747V42.6563H114.257L113.544 43.0343C113.554 42.5885 113.462 42.1959 113.268 41.8567C113.074 41.5175 112.808 41.251 112.468 41.0572C112.139 40.8634 111.756 40.7664 111.32 40.7664C110.874 40.7664 110.482 40.8634 110.143 41.0572C109.813 41.251 109.551 41.5224 109.358 41.8713C109.173 42.2105 109.081 42.6127 109.081 43.0779V43.3686C109.081 43.8338 109.188 44.2457 109.401 44.6043C109.614 44.9629 109.915 45.2391 110.302 45.4329C110.69 45.6267 111.136 45.7237 111.64 45.7237C112.076 45.7237 112.468 45.6558 112.817 45.5201C113.166 45.3845 113.476 45.1712 113.748 44.8805L114.722 45.9999C114.373 46.4069 113.932 46.7219 113.399 46.9448C112.876 47.158 112.275 47.2646 111.596 47.2646Z" fill="#020202"/>
<defs>
<filter id="filter0_d_29_140" x="0.247021" y="10.725" width="167.552" height="76.7152" filterUnits="userSpaceOnUse" color-interpolation-filters="sRGB">
<feFlood flood-opacity="0" result="BackgroundImageFix"/>
<feColorMatrix in="SourceAlpha" type="matrix" values="0 0 0 0 0 0 0 0 0 0 0 0 0 0 0 0 0 0 127 0" result="hardAlpha"/>
<feOffset dy="7.26863"/>
<feGaussianBlur stdDeviation="9.08579"/>
<feComposite in2="hardAlpha" operator="out"/>
<feColorMatrix type="matrix" values="0 0 0 0 0.518333 0 0 0 0 0.291667 0 0 0 0 1 0 0 0 0.25 0"/>
<feBlend mode="normal" in2="BackgroundImageFix" result="effect1_dropShadow_29_140"/>
<feBlend mode="normal" in="SourceGraphic" in2="effect1_dropShadow_29_140" result="shape"/>
</filter>
</defs>
</svg>
