<svg width="309" height="300" viewBox="0 0 309 300" fill="none" xmlns="http://www.w3.org/2000/svg">
<path d="M156.12 42.6879C165.865 31.8282 183.44 33.9635 190.301 46.8407L195.334 56.2856C199.49 64.0868 208.085 68.4522 216.836 67.2073L227.432 65.7C241.877 63.645 253.968 76.5779 250.947 90.8528L248.731 101.323C246.901 109.971 250.679 118.839 258.183 123.511L267.268 129.167C279.655 136.878 280.604 154.557 269.114 163.55L260.686 170.146C253.725 175.595 250.919 184.817 253.664 193.219L256.989 203.391C261.521 217.261 250.884 231.414 236.301 230.917L225.606 230.553C216.771 230.252 208.693 235.513 205.396 243.714L201.404 253.643C195.96 267.181 178.715 271.186 167.863 261.432L159.904 254.278C153.33 248.369 143.76 247.206 135.962 251.369L126.522 256.409C113.65 263.281 97.8649 255.263 95.8217 240.816L94.3231 230.22C93.0853 221.467 86.502 214.426 77.8526 212.602L67.3808 210.395C53.1035 207.385 46.165 191.097 53.8864 178.716L59.5497 169.636C64.2274 162.135 63.7106 152.509 58.2568 145.553L51.6539 137.131C42.6514 125.648 47.8061 108.71 61.6791 104.19L71.8544 100.874C80.2589 98.1348 86.0504 90.4287 86.344 81.5942L86.6996 70.8981C87.1843 56.3151 102.02 46.6536 115.554 52.1078L125.48 56.1082C133.678 59.4124 143.068 57.232 148.972 50.6531L156.12 42.6879Z" fill="url(#paint0_linear_29_105)"/>
<g filter="url(#filter0_i_29_105)">
<path d="M144.138 38.3684C153.883 27.5087 171.458 29.6439 178.32 42.5211L183.352 51.966C187.509 59.7672 196.103 64.1326 204.855 62.8877L215.45 61.3804C229.896 59.3255 241.987 72.2583 238.965 86.5332L236.749 97.0032C234.919 105.651 238.697 114.52 246.201 119.191L255.286 124.847C267.673 132.559 268.622 150.238 257.132 159.231L248.705 165.827C241.744 171.275 238.937 180.497 241.683 188.899L245.007 199.072C249.539 212.941 238.902 227.094 224.32 226.598L213.624 226.233C204.79 225.933 196.712 231.193 193.414 239.394L189.422 249.324C183.979 262.862 166.733 266.866 155.881 257.112L147.922 249.958C141.348 244.049 131.779 242.887 123.981 247.05L114.54 252.09C101.668 258.961 85.8833 250.944 83.8401 236.497L82.3415 225.9C81.1037 217.148 74.5204 210.106 65.871 208.283L55.3992 206.075C41.1219 203.066 34.1834 186.777 41.9048 174.397L47.5681 165.316C52.2458 157.816 51.729 148.19 46.2752 141.233L39.6722 132.811C30.6698 121.328 35.8245 104.391 49.6975 99.87L59.8728 96.5541C68.2772 93.8152 74.0688 86.1092 74.3624 77.2746L74.7179 66.5786C75.2027 51.9955 90.0386 42.334 103.572 47.7882L113.498 51.7886C121.697 55.0929 131.087 52.9124 136.99 46.3335L144.138 38.3684Z" fill="url(#paint1_radial_29_105)"/>
</g>
<g filter="url(#filter1_i_29_105)">
<path d="M119.982 153.465L123.138 127.488C123.576 123.882 125.769 123.268 128.009 126.127L134.178 134.003C135.107 135.189 136.843 135.4 138.002 134.467L148.892 125.912C150.078 124.983 151.813 125.194 152.715 126.377L161.267 137.294C162.196 138.48 163.931 138.691 165.09 137.758L172.966 131.589C175.825 129.349 177.807 130.471 177.369 134.077L174.21 160.081C173.222 168.216 167.14 172.98 159.005 171.991L131.889 168.697C124.409 167.761 119.073 160.949 119.982 153.465Z" stroke="#0A0A0A" stroke-width="6.35597" stroke-linecap="round" stroke-linejoin="round"/>
</g>
<defs>
<filter id="filter0_i_29_105" x="35.1857" y="31.3879" width="230.008" height="231.116" filterUnits="userSpaceOnUse" color-interpolation-filters="sRGB">
<feFlood flood-opacity="0" result="BackgroundImageFix"/>
<feBlend mode="normal" in="SourceGraphic" in2="BackgroundImageFix" result="shape"/>
<feColorMatrix in="SourceAlpha" type="matrix" values="0 0 0 0 0 0 0 0 0 0 0 0 0 0 0 0 0 0 127 0" result="hardAlpha"/>
<feOffset/>
<feGaussianBlur stdDeviation="1.68092"/>
<feComposite in2="hardAlpha" operator="arithmetic" k2="-1" k3="1"/>
<feColorMatrix type="matrix" values="0 0 0 0 1 0 0 0 0 1 0 0 0 0 1 0 0 0 0.25 0"/>
<feBlend mode="normal" in2="shape" result="effect1_innerShadow_29_105"/>
</filter>
<filter id="filter1_i_29_105" x="111.69" y="111.347" width="72.9836" height="76.3455" filterUnits="userSpaceOnUse" color-interpolation-filters="sRGB">
<feFlood flood-opacity="0" result="BackgroundImageFix"/>
<feBlend mode="normal" in="SourceGraphic" in2="BackgroundImageFix" result="shape"/>
<feColorMatrix in="SourceAlpha" type="matrix" values="0 0 0 0 0 0 0 0 0 0 0 0 0 0 0 0 0 0 127 0" result="hardAlpha"/>
<feOffset dy="3.36183"/>
<feGaussianBlur stdDeviation="1.68092"/>
<feComposite in2="hardAlpha" operator="arithmetic" k2="-1" k3="1"/>
<feColorMatrix type="matrix" values="0 0 0 0 0.145098 0 0 0 0 0.145098 0 0 0 0 0.145098 0 0 0 1 0"/>
<feBlend mode="normal" in2="shape" result="effect1_innerShadow_29_105"/>
</filter>
<linearGradient id="paint0_linear_29_105" x1="216.662" y1="145.152" x2="304.411" y2="182.482" gradientUnits="userSpaceOnUse">
<stop stop-color="#131313"/>
<stop offset="1" stop-color="#0A0A0A" stop-opacity="0"/>
</linearGradient>
<radialGradient id="paint1_radial_29_105" cx="0" cy="0" r="1" gradientUnits="userSpaceOnUse" gradientTransform="translate(148.181 147.838) rotate(96.927) scale(132.792)">
<stop stop-color="#3D3D3D"/>
<stop offset="1" stop-color="#121212"/>
</radialGradient>
</defs>
</svg>
