<svg width="453" height="461" viewBox="0 0 453 461" fill="none" xmlns="http://www.w3.org/2000/svg">
<path d="M317.285 108.717C230.83 30.2888 130.625 36.3219 83.9447 68.263C48.1209 92.7755 22.4558 151.622 33.7742 238.708C42.067 302.513 71.6562 387.223 188.074 414.945C275.42 435.745 336.546 413.098 384.475 358.513C456.011 277.041 423.486 117.112 293.838 35.2697" stroke="white" stroke-width="4" stroke-linecap="round"/>
<mask id="mask0_115_487" style="mask-type:alpha" maskUnits="userSpaceOnUse" x="51" y="49" width="349" height="349">
<circle cx="225.972" cy="223.329" r="174" fill="white"/>
</mask>
<g mask="url(#mask0_115_487)">
<circle cx="225.972" cy="223.329" r="174" fill="white"/>
<path fill-rule="evenodd" clip-rule="evenodd" d="M29.9722 28.8291V55.8291L-10.5278 55.8291V56.8291L29.9722 56.8291V83.8291H-10.5278L-10.5278 84.8291H29.9722V111.829H-10.5278L-10.5278 112.829H29.9722V139.829H-10.5278L-10.5278 140.829H29.9722V167.829H-10.5278L-10.5278 168.829H29.9722V195.829H-10.5278L-10.5278 196.829H29.9722L29.9722 223.829H-10.5278L-10.5278 224.829H29.9722V251.829H-10.5278L-10.5278 252.829H29.9722L29.9722 279.829H-10.5278L-10.5278 280.829H29.9722V307.829H-10.5278L-10.5278 308.829H29.9722L29.9722 335.829H-10.5278L-10.5278 336.829H29.9722V363.829H-10.5278L-10.5278 364.829H29.9722L29.9722 391.829H-10.5278L-10.5278 392.829H29.9722V419.829H-10.5278L-10.5278 420.829H29.9722L29.9722 460.329H30.9722L30.9722 420.829H57.9722L57.9722 460.329H58.9722L58.9722 420.829H85.9722L85.9722 460.329H86.9722L86.9722 420.829H113.972L113.972 460.329H114.972L114.972 420.829H141.972L141.972 460.329H142.972L142.972 420.829H169.972L169.972 460.329H170.972L170.972 420.829H197.972L197.972 460.329H198.972L198.972 420.829L225.972 420.829L225.972 460.329H226.972L226.972 420.829H253.972V460.329H254.972V420.829H281.972V460.329H282.972V420.829H309.972L309.972 460.329H310.972L310.972 420.829H337.972L337.972 460.329H338.972L338.972 420.829H365.972L365.972 460.329H366.972L366.972 420.829H393.972L393.972 460.329H394.972L394.972 420.829H421.972L421.972 460.329H422.972L422.972 420.829H462.472V419.829H422.972V392.829H462.472V391.829H422.972V364.829H462.472V363.829H422.972V336.829H462.472V335.829H422.972V308.829H462.472V307.829H422.972V280.829H462.472V279.829H422.972V252.829H462.472V251.829H422.972V224.829H462.472V223.829H422.972V196.829H462.472V195.829H422.972V168.829H462.472V167.829H422.972V140.829H462.472V139.829H422.972V112.829H462.472V111.829H422.972V84.8291H462.472V83.8291H422.972V56.8291L462.472 56.8291V55.8291L422.972 55.8291V28.8291L462.472 28.8291V27.8291L422.972 27.8291V-12.6709H421.972V27.8291H394.972V-12.6709H393.972V27.8291L366.972 27.8291V-12.6709H365.972V27.8291L338.972 27.8291V-12.6709H337.972V27.8291H310.972V-12.6709H309.972V27.8291L282.972 27.8291V-12.6709H281.972V27.8291H254.972V-12.6709H253.972V27.8291L226.972 27.8291V-12.6709H225.972V27.8291L198.972 27.8291V-12.6709H197.972V27.8291H170.972V-12.6709H169.972V27.8291L142.972 27.8291V-12.6709H141.972V27.8291H114.972V-12.6709H113.972V27.8291L86.9722 27.8291V-12.6709H85.9722V27.8291L58.9722 27.8291V-12.6709H57.9722V27.8291H30.9722V-12.6709H29.9722V27.8291L-10.5278 27.8291V28.8291L29.9722 28.8291ZM421.972 419.829V392.829H394.972V419.829H421.972ZM393.972 419.829V392.829H366.972V419.829H393.972ZM365.972 419.829V392.829H338.972V419.829H365.972ZM337.972 419.829V392.829H310.972V419.829H337.972ZM309.972 419.829V392.829H282.972V419.829H309.972ZM281.972 419.829V392.829H254.972V419.829H281.972ZM253.972 419.829V392.829H226.972V419.829H253.972ZM225.972 419.829V392.829L198.972 392.829V419.829L225.972 419.829ZM197.972 419.829V392.829H170.972V419.829H197.972ZM169.972 419.829V392.829H142.972V419.829H169.972ZM141.972 419.829V392.829H114.972V419.829H141.972ZM113.972 419.829V392.829H86.9722V419.829H113.972ZM85.9722 419.829V392.829H58.9722V419.829H85.9722ZM57.9722 419.829V392.829H30.9722V419.829H57.9722ZM57.9722 391.829H30.9722L30.9722 364.829H57.9722L57.9722 391.829ZM85.9722 391.829H58.9722L58.9722 364.829H85.9722L85.9722 391.829ZM113.972 391.829H86.9722L86.9722 364.829H113.972L113.972 391.829ZM141.972 391.829H114.972L114.972 364.829H141.972L141.972 391.829ZM169.972 391.829H142.972L142.972 364.829H169.972V391.829ZM197.972 391.829H170.972V364.829H197.972V391.829ZM225.972 391.829L198.972 391.829V364.829L225.972 364.829V391.829ZM253.972 391.829H226.972V364.829H253.972V391.829ZM281.972 391.829H254.972V364.829H281.972V391.829ZM309.972 391.829H282.972V364.829H309.972V391.829ZM337.972 391.829H310.972V364.829H337.972V391.829ZM365.972 391.829H338.972V364.829H365.972V391.829ZM393.972 391.829H366.972V364.829H393.972V391.829ZM421.972 391.829H394.972V364.829H421.972V391.829ZM421.972 363.829V336.829H394.972V363.829H421.972ZM393.972 363.829V336.829H366.972V363.829H393.972ZM365.972 363.829V336.829H338.972V363.829H365.972ZM337.972 363.829V336.829H310.972V363.829H337.972ZM309.972 363.829V336.829H282.972V363.829H309.972ZM281.972 363.829V336.829H254.972V363.829H281.972ZM253.972 363.829V336.829H226.972V363.829H253.972ZM225.972 363.829V336.829L198.972 336.829V363.829L225.972 363.829ZM197.972 363.829V336.829H170.972V363.829H197.972ZM169.972 363.829V336.829H142.972V363.829H169.972ZM141.972 363.829V336.829H114.972V363.829H141.972ZM113.972 363.829V336.829H86.9722V363.829H113.972ZM85.9722 363.829V336.829H58.9722V363.829H85.9722ZM57.9722 363.829V336.829H30.9722V363.829H57.9722ZM57.9722 335.829H30.9722L30.9722 308.829H57.9722L57.9722 335.829ZM85.9722 335.829H58.9722L58.9722 308.829H85.9722V335.829ZM113.972 335.829H86.9722V308.829H113.972L113.972 335.829ZM141.972 335.829H114.972L114.972 308.829H141.972V335.829ZM169.972 335.829H142.972V308.829H169.972V335.829ZM197.972 335.829H170.972V308.829H197.972V335.829ZM225.972 335.829L198.972 335.829V308.829L225.972 308.829V335.829ZM253.972 335.829H226.972V308.829H253.972V335.829ZM281.972 335.829H254.972V308.829H281.972V335.829ZM309.972 335.829H282.972V308.829H309.972V335.829ZM337.972 335.829H310.972V308.829H337.972V335.829ZM365.972 335.829H338.972V308.829H365.972V335.829ZM393.972 335.829H366.972V308.829H393.972V335.829ZM421.972 335.829H394.972V308.829H421.972V335.829ZM421.972 307.829V280.829H394.972V307.829H421.972ZM393.972 307.829V280.829H366.972V307.829H393.972ZM365.972 307.829V280.829H338.972V307.829H365.972ZM337.972 307.829V280.829H310.972V307.829H337.972ZM309.972 307.829V280.829H282.972V307.829H309.972ZM281.972 307.829V280.829H254.972V307.829H281.972ZM253.972 307.829V280.829H226.972V307.829H253.972ZM225.972 307.829V280.829L198.972 280.829V307.829L225.972 307.829ZM197.972 307.829V280.829H170.972V307.829H197.972ZM169.972 307.829V280.829H142.972V307.829H169.972ZM141.972 307.829V280.829H114.972V307.829H141.972ZM113.972 307.829V280.829H86.9722V307.829H113.972ZM85.9722 307.829V280.829H58.9722V307.829H85.9722ZM57.9722 307.829V280.829H30.9722V307.829H57.9722ZM57.9722 279.829H30.9722L30.9722 252.829H57.9722V279.829ZM85.9722 279.829H58.9722V252.829H85.9722V279.829ZM113.972 279.829H86.9722V252.829H113.972V279.829ZM141.972 279.829H114.972V252.829H141.972V279.829ZM169.972 279.829H142.972V252.829H169.972V279.829ZM197.972 279.829H170.972V252.829H197.972V279.829ZM225.972 279.829L198.972 279.829V252.829L225.972 252.829V279.829ZM253.972 279.829H226.972V252.829H253.972V279.829ZM281.972 279.829H254.972V252.829H281.972V279.829ZM309.972 279.829H282.972V252.829H309.972V279.829ZM337.972 279.829H310.972V252.829H337.972V279.829ZM365.972 279.829H338.972V252.829H365.972V279.829ZM393.972 279.829H366.972V252.829H393.972V279.829ZM421.972 279.829H394.972V252.829H421.972V279.829ZM421.972 251.829V224.829H394.972V251.829H421.972ZM393.972 251.829V224.829L366.972 224.829V251.829H393.972ZM365.972 251.829V224.829H338.972V251.829H365.972ZM337.972 251.829V224.829H310.972V251.829H337.972ZM309.972 251.829V224.829H282.972V251.829H309.972ZM281.972 251.829V224.829H254.972V251.829H281.972ZM253.972 251.829V224.829H226.972V251.829H253.972ZM225.972 251.829V224.829L198.972 224.829V251.829L225.972 251.829ZM197.972 251.829V224.829H170.972V251.829H197.972ZM169.972 251.829V224.829H142.972V251.829H169.972ZM141.972 251.829V224.829H114.972V251.829H141.972ZM113.972 251.829V224.829H86.9722V251.829H113.972ZM85.9722 251.829V224.829L58.9722 224.829V251.829H85.9722ZM57.9722 251.829V224.829H30.9722V251.829H57.9722ZM57.9722 223.829H30.9722L30.9722 196.829H57.9722V223.829ZM85.9722 223.829L58.9722 223.829V196.829L85.9722 196.829V223.829ZM113.972 223.829H86.9722V196.829H113.972V223.829ZM141.972 223.829H114.972V196.829H141.972V223.829ZM169.972 223.829H142.972V196.829H169.972V223.829ZM197.972 223.829H170.972V196.829H197.972V223.829ZM225.972 223.829L198.972 223.829V196.829L225.972 196.829V223.829ZM253.972 223.829H226.972V196.829H253.972V223.829ZM281.972 223.829H254.972V196.829H281.972V223.829ZM309.972 223.829H282.972V196.829H309.972V223.829ZM337.972 223.829H310.972V196.829H337.972V223.829ZM365.972 223.829H338.972V196.829H365.972V223.829ZM393.972 223.829L366.972 223.829V196.829L393.972 196.829V223.829ZM421.972 223.829H394.972V196.829H421.972V223.829ZM421.972 195.829V168.829H394.972V195.829H421.972ZM393.972 195.829V168.829L366.972 168.829V195.829L393.972 195.829ZM365.972 195.829V168.829H338.972V195.829H365.972ZM337.972 195.829V168.829H310.972V195.829H337.972ZM309.972 195.829V168.829H282.972V195.829H309.972ZM281.972 195.829V168.829H254.972V195.829H281.972ZM253.972 195.829V168.829H226.972V195.829H253.972ZM225.972 195.829V168.829L198.972 168.829V195.829L225.972 195.829ZM197.972 195.829V168.829H170.972V195.829H197.972ZM169.972 195.829V168.829H142.972V195.829H169.972ZM141.972 195.829V168.829H114.972V195.829H141.972ZM113.972 195.829V168.829H86.9722V195.829H113.972ZM85.9722 195.829V168.829L58.9722 168.829V195.829L85.9722 195.829ZM57.9722 195.829V168.829H30.9722V195.829H57.9722ZM57.9722 167.829H30.9722V140.829H57.9722V167.829ZM85.9722 167.829L58.9722 167.829V140.829L85.9722 140.829V167.829ZM113.972 167.829H86.9722V140.829H113.972V167.829ZM141.972 167.829H114.972V140.829H141.972V167.829ZM169.972 167.829H142.972V140.829H169.972V167.829ZM197.972 167.829H170.972V140.829H197.972V167.829ZM225.972 167.829L198.972 167.829V140.829L225.972 140.829V167.829ZM253.972 167.829H226.972V140.829H253.972V167.829ZM281.972 167.829H254.972V140.829H281.972V167.829ZM309.972 167.829H282.972V140.829H309.972V167.829ZM337.972 167.829H310.972V140.829H337.972V167.829ZM365.972 167.829H338.972V140.829H365.972V167.829ZM393.972 167.829L366.972 167.829V140.829L393.972 140.829V167.829ZM421.972 167.829H394.972V140.829H421.972V167.829ZM421.972 139.829V112.829L394.972 112.829V139.829H421.972ZM393.972 139.829V112.829H366.972V139.829L393.972 139.829ZM365.972 139.829V112.829H338.972V139.829H365.972ZM337.972 139.829V112.829L310.972 112.829V139.829H337.972ZM309.972 139.829V112.829H282.972V139.829H309.972ZM281.972 139.829V112.829H254.972V139.829H281.972ZM253.972 139.829V112.829H226.972V139.829H253.972ZM225.972 139.829V112.829L198.972 112.829V139.829L225.972 139.829ZM197.972 139.829V112.829H170.972V139.829H197.972ZM169.972 139.829V112.829H142.972V139.829H169.972ZM141.972 139.829V112.829L114.972 112.829V139.829H141.972ZM113.972 139.829V112.829H86.9722V139.829H113.972ZM85.9722 139.829V112.829H58.9722V139.829L85.9722 139.829ZM57.9722 139.829V112.829L30.9722 112.829V139.829H57.9722ZM57.9722 111.829L30.9722 111.829V84.8291L57.9722 84.8291V111.829ZM85.9722 111.829H58.9722V84.8291H85.9722V111.829ZM113.972 111.829H86.9722V84.8291H113.972V111.829ZM141.972 111.829L114.972 111.829V84.8291L141.972 84.8291V111.829ZM169.972 111.829H142.972V84.8291H169.972V111.829ZM197.972 111.829H170.972V84.8291H197.972V111.829ZM225.972 111.829L198.972 111.829V84.8291L225.972 84.8291V111.829ZM253.972 111.829H226.972V84.8291H253.972V111.829ZM281.972 111.829H254.972V84.8291H281.972V111.829ZM309.972 111.829H282.972V84.8291H309.972V111.829ZM337.972 111.829L310.972 111.829V84.8291L337.972 84.8291V111.829ZM365.972 111.829H338.972V84.8291H365.972V111.829ZM393.972 111.829H366.972V84.8291H393.972V111.829ZM421.972 111.829L394.972 111.829V84.8291L421.972 84.8291V111.829ZM421.972 83.8291V56.8291H394.972V83.8291L421.972 83.8291ZM393.972 83.8291V56.8291H366.972V83.8291H393.972ZM365.972 83.8291V56.8291L338.972 56.8291V83.8291H365.972ZM337.972 83.8291V56.8291H310.972V83.8291L337.972 83.8291ZM309.972 83.8291V56.8291H282.972V83.8291H309.972ZM281.972 83.8291V56.8291L254.972 56.8291V83.8291H281.972ZM253.972 83.8291V56.8291H226.972V83.8291H253.972ZM225.972 83.8291V56.8291H198.972V83.8291L225.972 83.8291ZM197.972 83.8291V56.8291L170.972 56.8291V83.8291H197.972ZM169.972 83.8291V56.8291H142.972V83.8291H169.972ZM141.972 83.8291V56.8291H114.972V83.8291L141.972 83.8291ZM113.972 83.8291V56.8291L86.9722 56.8291V83.8291H113.972ZM85.9722 83.8291V56.8291H58.9722V83.8291H85.9722ZM57.9722 83.8291V56.8291H30.9722V83.8291L57.9722 83.8291ZM57.9722 55.8291H30.9722V28.8291H57.9722V55.8291ZM85.9722 55.8291H58.9722V28.8291L85.9722 28.8291V55.8291ZM113.972 55.8291L86.9722 55.8291V28.8291L113.972 28.8291V55.8291ZM141.972 55.8291H114.972V28.8291H141.972V55.8291ZM169.972 55.8291H142.972V28.8291L169.972 28.8291V55.8291ZM197.972 55.8291L170.972 55.8291V28.8291H197.972V55.8291ZM225.972 55.8291H198.972V28.8291L225.972 28.8291V55.8291ZM253.972 55.8291H226.972V28.8291L253.972 28.8291V55.8291ZM281.972 55.8291L254.972 55.8291V28.8291H281.972V55.8291ZM309.972 55.8291H282.972V28.8291L309.972 28.8291V55.8291ZM337.972 55.8291H310.972V28.8291H337.972V55.8291ZM365.972 55.8291L338.972 55.8291V28.8291L365.972 28.8291V55.8291ZM393.972 55.8291H366.972V28.8291L393.972 28.8291V55.8291ZM421.972 55.8291H394.972V28.8291H421.972V55.8291Z" fill="#B7B7B7"/>
</g>
</svg>
