<svg width="179" height="179" viewBox="0 0 179 179" fill="none" xmlns="http://www.w3.org/2000/svg">
<path d="M91.5462 52.2737C90.641 53.3881 89.7312 54.498 88.7905 55.5854C88.2988 56.1673 87.798 56.7464 87.3473 57.3597C84.9449 60.6356 82.5802 63.9427 80.098 67.16C78.5605 69.1334 77.0025 71.0907 75.4239 73.0319L73.0473 75.9361L70.6385 78.8133C70.1358 79.3827 69.5882 79.9104 69.001 80.3913C68.7694 80.5991 68.4915 80.7482 68.1902 80.8264C67.8889 80.9045 67.5729 80.9095 67.2683 80.8407C66.4204 80.669 66.0686 79.8214 66.5639 78.9194C66.9003 78.3407 67.3078 77.8071 67.7769 77.3311C68.8245 76.2259 69.8207 75.08 70.7656 73.8933C71.7148 72.71 72.6154 71.4876 73.4673 70.2259C73.9381 69.53 74.3895 68.7747 74.9842 68.2098C76.882 66.4031 78.3517 64.2248 80.0862 62.2775C81.3744 60.8291 82.5544 59.2805 83.8 57.7917L87.1282 53.806C88.2299 52.4712 89.366 51.1629 90.4725 49.8307C90.9182 49.3241 91.3968 48.8478 91.9053 48.4049C92.3966 47.9981 92.9102 47.6192 93.4437 47.2698C93.9149 46.9597 94.1902 47.2142 93.9632 47.8201C93.6357 48.6885 93.248 49.5325 92.803 50.3458C92.6206 50.68 92.4181 51.0051 92.202 51.3213C91.9734 51.6279 91.744 51.9357 91.5159 52.2415L91.5462 52.2737Z" fill="white"/>
<path d="M116.123 86.1912L114.442 86.9273L112.741 87.6232C112.14 87.8708 111.536 88.1194 110.959 88.4172C110.189 88.8127 109.423 89.2178 108.659 89.6259L106.362 90.8363L101.774 93.2661L96.118 96.2438L90.4778 99.253C89.898 99.5419 89.298 99.7886 88.6824 99.991C88.4336 100.084 88.166 100.118 87.901 100.089C87.636 100.06 87.381 99.9692 87.1562 99.8239C86.5276 99.4363 86.5021 98.662 87.1746 98.0848C87.6199 97.7191 88.1105 97.4129 88.6346 97.1738C90.9921 96.0402 93.2748 94.7577 95.4691 93.3338C96.0536 92.9016 96.6857 92.5381 97.3532 92.2503C99.475 91.4769 101.394 90.2816 103.455 89.3867C104.986 88.7234 106.471 87.9486 108.002 87.2769C110.735 86.0895 113.478 84.93 116.263 83.8716C117.316 83.4584 118.432 83.2235 119.564 83.1763C120.054 83.1548 120.179 83.5137 119.758 83.8679C119.151 84.3705 118.511 84.8325 117.843 85.2507C117.284 85.586 116.706 85.8875 116.112 86.1537L116.123 86.1912Z" fill="white"/>
<path d="M117.573 125.511C116.525 125.327 115.477 125.138 114.43 124.945C113.879 124.818 113.32 124.724 112.758 124.664C111.258 124.536 109.755 124.442 108.253 124.348C106.751 124.251 105.251 124.146 103.753 124.016C101.909 123.86 100.067 123.685 98.2244 123.513L92.6997 122.969C92.1365 122.892 91.5842 122.745 91.0553 122.533C90.5397 122.348 90.2351 121.836 90.0702 121.186C89.8298 120.239 90.2135 119.281 90.9841 119.111C91.4789 119.019 91.9883 119.031 92.4798 119.146C94.7175 119.591 96.9976 119.769 99.2728 119.679C99.9041 119.656 100.567 119.581 101.16 119.778C103.054 120.397 105.025 120.372 106.943 120.774C108.368 121.068 109.815 121.227 111.245 121.493C112.519 121.731 113.792 121.978 115.063 122.236L118.861 123.086C119.854 123.303 120.782 123.754 121.569 124.401C121.652 124.462 121.715 124.546 121.751 124.643C121.787 124.74 121.793 124.845 121.769 124.945C121.745 125.045 121.691 125.135 121.615 125.204C121.54 125.273 121.445 125.317 121.344 125.331C120.66 125.462 119.97 125.552 119.275 125.6C118.709 125.596 118.144 125.551 117.584 125.463L117.573 125.511Z" fill="white"/>
<path d="M94.7853 147.593C94.5508 147.429 94.3106 147.273 94.0855 147.093L93.4121 146.553C93.1789 146.356 92.9298 146.179 92.6674 146.023C91.9529 145.634 91.2216 145.27 90.5152 144.869C89.8038 144.476 89.0947 144.078 88.4019 143.656C87.5479 143.137 86.7034 142.604 85.877 142.043L83.3975 140.36C83.1503 140.166 82.941 139.927 82.7805 139.656C82.608 139.4 82.6753 138.963 82.8691 138.461C83.1514 137.731 83.7407 137.143 84.1829 137.207C84.4521 137.256 84.6996 137.39 84.8895 137.589C85.7807 138.435 86.8289 139.097 87.9734 139.536C88.2922 139.662 88.653 139.749 88.8619 140.024C89.5354 140.895 90.5187 141.308 91.306 142.01C91.8881 142.536 92.5629 142.929 93.159 143.436C94.2255 144.336 95.3097 145.209 96.3504 146.147C96.7868 146.529 97.0952 147.037 97.2331 147.6C97.2487 147.669 97.2491 147.741 97.2342 147.811C97.2193 147.88 97.1894 147.945 97.1468 148.001C97.1041 148.058 97.0496 148.104 96.9871 148.137C96.9246 148.17 96.8556 148.188 96.7849 148.191C96.5877 148.172 96.3903 148.146 96.1951 148.113C96.003 148.084 95.8135 148.039 95.6287 147.978C95.3436 147.865 95.0692 147.726 94.809 147.562L94.7853 147.593Z" fill="white"/>
<path d="M48.0418 53.8008C48.0455 54.4862 48.042 55.1704 48.0314 55.8534C48.0169 56.2148 48.024 56.5769 48.0529 56.9378C48.1708 57.8942 48.2784 58.8535 48.3681 59.8158C48.4537 60.7783 48.5027 61.743 48.515 62.71C48.5175 63.8994 48.4846 65.0894 48.4014 66.276C48.3186 67.4626 48.2037 68.646 48.0565 69.8263C47.9941 70.1895 47.8711 70.5391 47.6925 70.8603C47.5361 71.1799 47.1251 71.3398 46.6078 71.3965C45.8543 71.4782 45.1028 71.1642 44.9799 70.6822C44.9161 70.378 44.9315 70.0631 45.0247 69.7679C45.3918 68.4205 45.4879 67.0112 45.3073 65.622C45.2619 65.2359 45.1617 64.8336 45.2785 64.4686C45.6574 63.2986 45.468 62.0928 45.5866 60.9046C45.628 60.462 45.6456 60.0173 45.6391 59.5724C45.6422 59.1276 45.6315 58.6826 45.6398 58.2373C45.6674 56.6494 45.6811 55.0538 45.6211 53.4559C45.6171 52.7833 45.8282 52.1287 46.2234 51.5886C46.3919 51.3154 46.7246 51.2836 47.0373 51.5355L47.3178 51.8145C47.3635 51.8557 47.4008 51.9054 47.4276 51.9609L47.5111 52.1121C47.6197 52.3125 47.7162 52.5192 47.8001 52.7311C47.8658 52.9019 47.9134 53.0791 47.9419 53.2597C47.9622 53.4404 47.9747 53.6223 47.9979 53.8021L48.0418 53.8008Z" fill="white"/>
</svg>
