<svg width="94" height="193" viewBox="0 0 94 193" fill="none" xmlns="http://www.w3.org/2000/svg">
<path d="M77.7113 5.5977C78.5286 5.73249 79.3005 5.17914 79.4353 4.36175C79.5701 3.54436 79.0168 2.77247 78.1994 2.63768L77.7113 5.5977ZM48.4297 2.80889L48.6851 4.28697L48.4297 2.80889ZM15.2085 21.287L14.0085 20.387L15.2085 21.287ZM3.71056 70.5742L5.15489 70.1693L3.71056 70.5742ZM24.6117 107.372L23.7228 108.581L24.6117 107.372ZM60.6911 115.881L60.0373 114.531L60.6911 115.881ZM31.5661 86.6566L30.4936 85.6079L30.4454 85.6572L30.4019 85.7108L31.5661 86.6566ZM21.595 105.631L20.0992 105.518L21.595 105.631ZM30.4676 136.749L31.7778 136.019L30.4676 136.749ZM93.0638 184.343C93.7552 183.886 93.9456 182.956 93.4891 182.264L86.0508 170.998C85.5943 170.307 84.6638 170.117 83.9725 170.573C83.2812 171.03 83.0908 171.96 83.5472 172.651L90.1591 182.665L80.1449 189.277C79.4536 189.734 79.2632 190.664 79.7197 191.356C80.1761 192.047 81.1066 192.237 81.7979 191.781L93.0638 184.343ZM78.1994 2.63768C64.393 0.360915 57.8802 -0.346691 48.1742 1.3308L48.6851 4.28697C57.8662 2.70021 63.9586 3.32979 77.7113 5.5977L78.1994 2.63768ZM48.1742 1.3308C35.2011 3.57295 22.2762 9.36336 14.0085 20.387L16.4085 22.187C24.066 11.977 36.1748 6.44913 48.6851 4.28697L48.1742 1.3308ZM14.0085 20.387C3.29548 34.6709 -2.43214 54.2175 2.26623 70.979L5.15489 70.1693C0.775027 54.5441 6.08847 35.9469 16.4085 22.187L14.0085 20.387ZM2.26623 70.979C3.92487 76.8962 6.60503 84.2969 10.1871 91.1957C13.7547 98.0665 18.2908 104.585 23.7228 108.581L25.5005 106.164C20.6126 102.568 16.3345 96.5247 12.8496 89.8132C9.3793 83.1297 6.76887 75.9272 5.15489 70.1693L2.26623 70.979ZM23.7228 108.581C27.9772 111.71 34.417 115.241 41.2156 117.324C47.9683 119.392 55.3753 120.122 61.3449 117.231L60.0373 114.531C55.0857 116.929 48.585 116.444 42.0943 114.456C35.6495 112.481 29.5101 109.114 25.5005 106.164L23.7228 108.581ZM61.3449 117.231C67.6831 114.161 74.0109 110.396 77.5614 104.948C81.2206 99.3323 81.7607 92.2211 77.1876 82.9721L74.4984 84.3018C78.7147 92.8291 78.001 98.7781 75.048 103.31C71.9862 108.008 66.3433 111.477 60.0373 114.531L61.3449 117.231ZM77.1876 82.9721C73.9057 76.3345 66.7201 72.2874 58.1677 72.2671C49.6009 72.2467 39.6537 76.2394 30.4936 85.6079L32.6386 87.7052C41.3417 78.8042 50.5474 75.249 58.1605 75.2671C65.788 75.2852 71.8093 78.8632 74.4984 84.3018L77.1876 82.9721ZM30.4019 85.7108C25.9612 91.1769 20.6981 97.5356 20.0992 105.518L23.0908 105.743C23.6069 98.8635 28.1517 93.2384 32.7303 87.6024L30.4019 85.7108ZM20.0992 105.518C19.247 116.879 23.8847 128.019 29.1574 137.479L31.7778 136.019C26.5786 126.69 22.3066 116.197 23.0908 105.743L20.0992 105.518ZM29.1574 137.479C41.4575 159.548 66.8257 179.422 91.9366 184.56L92.5381 181.621C68.3574 176.673 43.6907 157.392 31.7778 136.019L29.1574 137.479Z" fill="white"/>
</svg>
