<svg width="24" height="24" viewBox="0 0 24 24" fill="none" xmlns="http://www.w3.org/2000/svg">
<path fill-rule="evenodd" clip-rule="evenodd" d="M11.67 9.99C11.6891 10.6469 11.2866 11.2426 10.67 11.47C11.4732 11.687 12.0126 12.4396 11.96 13.27C11.96 15.27 9.77 15.33 9.45 15.33H6.02V8.23H9.4C11.59 8.23 11.67 9.45 11.67 9.99ZM9.05 9.47H7.58V11.13H9.17C9.41128 11.159 9.65329 11.082 9.83354 10.919C10.0138 10.756 10.1146 10.523 10.11 10.28C10.11 9.44212 9.28573 9.46396 9.08072 9.46939C9.06797 9.46973 9.05761 9.47 9.05 9.47ZM9.25 14.15H7.58V12.15H9.27C9.55691 12.1124 9.84605 12.2009 10.0627 12.3926C10.2794 12.5844 10.4025 12.8606 10.4 13.15C10.4 14.12 9.39999 14.12 9.25 14.12V14.15Z" fill="white"/>
<path d="M16.5 8.89H13.85V9.54H16.5V8.89Z" fill="white"/>
<path fill-rule="evenodd" clip-rule="evenodd" d="M13.457 10.8259C13.9254 10.3499 14.5728 10.0936 15.24 10.12C17.04 10.12 17.6 11.64 17.56 12.93H14.15C14.1065 13.2543 14.2123 13.5808 14.4377 13.8179C14.6632 14.055 14.9839 14.1771 15.31 14.15C15.7374 14.1521 16.1274 13.9065 16.31 13.52H17.42C17.173 14.5259 16.2324 15.2039 15.2 15.12C14.535 15.1508 13.8889 14.8944 13.4259 14.4161C12.9629 13.9378 12.7276 13.2836 12.78 12.62C12.7428 11.9533 12.9887 11.3018 13.457 10.8259ZM14.19 11.8C14.1526 11.9027 14.1324 12.0108 14.13 12.12H16.24C16.2243 11.841 16.1191 11.5745 15.94 11.36C15.7415 11.1787 15.4784 11.085 15.21 11.1C15.0312 11.0924 14.8532 11.1267 14.69 11.2C14.5583 11.264 14.4422 11.3562 14.35 11.47C14.2751 11.5681 14.2206 11.6804 14.19 11.8Z" fill="white"/>
<path fill-rule="evenodd" clip-rule="evenodd" d="M17.56 2H6C3.79086 2 2 3.79086 2 6V17.56C2 19.7691 3.79086 21.56 6 21.56H17.56C19.7691 21.56 21.56 19.7691 21.56 17.56V6C21.56 3.79086 19.7691 2 17.56 2ZM20.06 17.56C20.06 18.9407 18.9407 20.06 17.56 20.06H6C4.61929 20.06 3.5 18.9407 3.5 17.56V6C3.5 4.61929 4.61929 3.5 6 3.5H17.56C18.9407 3.5 20.06 4.61929 20.06 6V17.56Z" fill="white"/>
</svg>
